PathFileType	4	(X/Y/Z)	 s08c0201.trc
DataRate	CameraRate	NumFrames	NumMarkers	Units	OrigDataRate	OrigDataStartFrame	OrigNumFrames
200	200	5	50	mm	200	1	2000
Frame#	Time	racr			lacr			c7			jug			rlel			rdr			llel			ldr			s2			lic			ric			lasi			rasi			rpsi			lpsi			rgt			lgt			rth1			rth2			rth3			rth4			rlfc			rmfc			rsh1			rsh2			rsh3			rsh4			rlmal			rmmal			rcal			rtoe			rmt5			lth1			lth2			lth4			lth3			llfc			lmfc			llmal			lmmal			lcal			lmt5			lsh1			lsh2			lsh3			lsh4			ltoe			SBIKE			LBIKE			RBIKE			
		X1	Y1	Z1	X2	Y2	Z2	X3	Y3	Z3	X4	Y4	Z4	X5	Y5	Z5	X6	Y6	Z6	X7	Y7	Z7	X8	Y8	Z8	X9	Y9	Z9	X10	Y10	Z10	X11	Y11	Z11	X12	Y12	Z12	X13	Y13	Z13	X14	Y14	Z14	X15	Y15	Z15	X16	Y16	Z16	X17	Y17	Z17	X18	Y18	Z18	X19	Y19	Z19	X20	Y20	Z20	X21	Y21	Z21	X22	Y22	Z22	X23	Y23	Z23	X24	Y24	Z24	X25	Y25	Z25	X26	Y26	Z26	X27	Y27	Z27	X28	Y28	Z28	X29	Y29	Z29	X30	Y30	Z30	X31	Y31	Z31	X32	Y32	Z32	X33	Y33	Z33	X34	Y34	Z34	X35	Y35	Z35	X36	Y36	Z36	X37	Y37	Z37	X38	Y38	Z38	X39	Y39	Z39	X40	Y40	Z40	X41	Y41	Z41	X42	Y42	Z42	X43	Y43	Z43	X44	Y44	Z44	X45	Y45	Z45	X46	Y46	Z46	X47	Y47	Z47	X48	Y48	Z48	X49	Y49	Z49	X50	Y50	Z50	
1	0.0050	539.340081	1397.539632	-47.550591	571.966114	1413.246661	-408.999898	536.002002	1452.946343	-221.958055	515.434322	1297.898119	-217.940605	562.672584	1134.753269	34.939527	784.885049	937.569819	-38.844821	602.524917	1150.117964	-487.559159	783.093356	933.194758	-410.565117	-9.228426	1212.456369	-245.552687	169.789853	1174.960049	-380.768255	145.896293	1220.588907	-80.125919	183.869428	1120.514277	-344.644653	163.401271	1159.849426	-108.897542	19.455217	1256.533893	-195.524472	31.935529	1247.230174	-290.716358	57.943662	1129.210113	-31.421460	84.750433	1067.944255	-409.547053	193.280903	1033.108876	-16.826138	279.811176	1012.884320	-12.803163	342.700955	952.340466	-11.539710	297.403033	1042.910836	-27.501840	436.799193	874.614104	-28.970225	426.728683	872.108218	-144.710097	341.737799	786.637201	-7.209840	302.429833	708.546023	-33.534637	231.857945	661.669746	-43.532903	327.076480	697.325208	-65.294735	149.400006	578.329881	-62.506170	172.986595	599.792643	-147.008180	64.703334	565.155241	-109.077798	355.492692	507.291227	-96.386935	263.467286	490.994159	-33.413037	125.702307	938.202086	-427.798369	169.481609	862.347428	-422.793027	202.910470	871.223963	-408.568224	167.189802	773.352594	-418.848224	192.739551	651.009605	-395.510987	185.337497	628.233530	-299.206140	199.285414	236.764301	-395.645271	236.497466	268.692657	-325.399335	138.816807	212.827457	-357.816701	345.226707	149.885050	-413.610280	187.369453	524.448233	-424.995180	212.304863	442.933209	-406.805247	197.211234	356.767563	-411.003449	231.188787	448.304259	-373.415782	426.020095	178.087165	-343.186299	-134.799880	944.302547	-221.843387	26.600983	84.178974	-426.624617	18.398033	80.385942	-28.003424	
2	0.0100	539.420204	1397.522043	-47.621474	571.934893	1413.166152	-409.042248	535.989435	1452.862404	-222.031575	515.401113	1297.836033	-217.940449	562.686973	1134.754865	34.970932	784.879945	937.589257	-38.797677	602.465556	1150.035225	-487.555668	783.074856	933.180238	-410.526964	-8.847429	1212.424589	-245.622266	169.664660	1174.916319	-380.721186	145.851967	1220.595649	-80.081809	183.699205	1120.424865	-344.688314	163.367103	1159.932918	-108.875686	19.345484	1256.518585	-195.469314	31.818174	1247.290431	-290.681749	57.925343	1129.374416	-31.366732	84.515948	1067.951279	-409.579194	193.368212	1033.451063	-16.825308	279.894012	1013.343516	-12.845283	342.917913	952.873852	-11.585052	297.462070	1043.360874	-27.570315	437.030127	875.232491	-29.016887	426.944017	872.680290	-144.705511	342.150275	787.036247	-7.248763	303.138665	708.886040	-35.172181	232.490893	661.955908	-43.525464	327.595596	697.675440	-65.351985	150.171930	578.437615	-62.492612	173.659011	599.866127	-146.982694	65.486169	565.152151	-109.031132	356.304248	507.643333	-96.334904	263.946953	491.215896	-33.382027	125.327121	938.173376	-427.785840	169.014274	862.246408	-422.838110	202.435235	871.114669	-408.626075	166.605096	773.295749	-418.911275	192.139983	650.933062	-395.526396	184.830204	628.171617	-299.182004	198.452687	236.760205	-395.646990	235.711505	268.614247	-325.353073	138.027871	212.855486	-357.779923	344.295324	149.670885	-413.695738	186.490830	524.289640	-424.725639	211.580411	442.824463	-406.773141	196.425669	356.716397	-410.988760	230.473831	448.213993	-373.503992	425.210353	177.791476	-343.182297	-134.791363	944.305030	-221.850835	26.576762	84.335276	-426.694501	18.398991	80.316706	-28.032305	
3	0.0150	539.479304	1397.490217	-47.749331	571.861514	1413.104371	-409.074322	535.964991	1452.768672	-222.110375	515.392010	1297.763550	-218.017517	562.677776	1134.733777	34.972679	784.882895	937.593098	-38.787696	602.417564	1149.979440	-487.572698	783.073412	933.184114	-410.526282	-8.930192	1212.471598	-245.582539	169.569612	1174.893488	-380.707194	145.818607	1220.572435	-80.070362	183.543064	1120.362965	-344.768101	163.292994	1159.978222	-108.872567	19.285254	1256.537551	-195.450249	31.683772	1247.369599	-290.668514	57.892571	1129.517117	-31.295072	84.302440	1067.945326	-409.552060	193.428135	1033.772203	-16.816397	279.978491	1013.785039	-12.902178	342.997080	953.452040	-11.641861	297.473204	1043.772089	-27.658018	437.288700	875.767331	-29.076874	427.171873	873.229788	-144.769579	342.530556	787.512125	-7.310466	303.698818	709.223651	-35.174049	233.167318	662.200583	-43.535422	328.213710	698.107918	-65.357730	150.909453	578.548949	-62.494406	174.415894	600.007044	-146.904624	66.923223	564.006495	-109.151230	357.175584	508.037185	-96.327836	264.341431	491.404946	-33.332676	124.944574	938.164568	-427.764101	168.562390	862.178743	-422.882588	202.007075	871.033875	-408.699323	166.051286	773.223197	-418.965462	191.517500	650.862545	-395.569089	184.275925	628.153195	-299.244855	197.665853	236.713816	-395.647280	234.795769	268.404621	-325.262973	137.227354	212.943405	-357.776657	343.447764	149.418325	-413.661001	185.989350	524.343804	-424.966251	210.861961	442.743058	-406.764564	195.691576	356.642156	-410.949194	229.789883	448.073875	-373.330003	424.347066	177.457376	-343.238425	-134.792151	944.293985	-221.852798	26.612385	84.198878	-426.595952	18.417466	80.333180	-28.031613	
4	0.0200	538.952778	1396.575737	-49.463845	571.798894	1413.098590	-409.098637	536.096966	1452.762891	-222.275047	515.346427	1297.700072	-218.088929	562.693846	1134.723733	35.004813	784.959946	937.531596	-38.692075	601.893861	1151.225134	-491.526403	783.335994	932.709329	-408.413293	-9.038625	1212.522472	-245.559207	170.100089	1176.704050	-386.151083	145.674703	1220.456419	-80.043677	183.375943	1120.301346	-344.807648	163.251255	1160.029002	-108.878252	19.739121	1256.033111	-195.394518	32.020689	1247.107013	-290.620093	57.698558	1129.585820	-31.327126	84.069070	1067.962898	-409.554275	193.472346	1034.083766	-16.827824	279.852800	1014.592092	-12.403988	343.294080	953.881587	-12.498037	296.541848	1044.463207	-29.113593	437.518632	876.292835	-29.728141	429.444382	874.746962	-150.236026	342.895983	787.950416	-7.346306	303.728345	709.582451	-33.950685	233.748015	662.361127	-43.548902	328.058295	699.208637	-64.675004	151.676265	578.582164	-62.399642	175.175171	600.144350	-146.870494	67.044852	565.087258	-109.009418	358.311151	508.499151	-96.583224	263.886111	492.464538	-33.797729	124.789244	938.106847	-427.421719	168.198465	862.081641	-422.744918	202.196624	871.798876	-410.328301	165.839500	772.942835	-418.019344	194.804436	655.495513	-403.822209	183.927431	628.710186	-300.691727	197.545316	235.570219	-394.038575	234.087020	268.416950	-325.323895	136.496104	212.948109	-357.735506	342.534026	149.231524	-413.662485	185.514017	524.099647	-424.729332	210.381382	446.476736	-412.781282	194.261591	357.739382	-412.738292	229.445868	450.693748	-378.214595	422.526482	179.077929	-346.004425	-134.791377	944.297764	-221.860535	26.600265	84.200958	-426.615467	18.409311	80.319370	-28.047584	
5	0.0250	538.680240	1396.057601	-50.434554	571.748582	1413.110771	-409.117356	536.107226	1452.585456	-222.473381	515.474466	1297.266993	-218.135027	560.806311	1134.890210	33.680125	784.926410	937.490798	-38.390296	600.828573	1152.791315	-494.424065	783.273330	932.810144	-408.342728	-9.210186	1212.653963	-245.496164	169.664540	1177.733348	-388.313623	145.729658	1220.593464	-80.184716	183.374749	1119.814765	-345.224838	163.164441	1159.855147	-109.072403	19.814528	1256.296583	-195.548617	31.950565	1247.191321	-290.619754	57.707819	1129.876451	-31.145611	83.666831	1067.773755	-409.196196	193.530801	1034.463140	-16.862061	279.847953	1015.207599	-12.173466	343.358114	954.433020	-11.928426	297.445897	1044.516107	-28.189882	437.349867	877.735132	-32.536840	432.382773	876.614558	-157.502167	343.265289	788.518064	-7.361059	302.759234	710.064812	-36.957757	234.313039	662.716172	-43.520487	328.584857	699.688181	-64.593629	152.455587	578.661423	-62.471091	175.867637	600.378701	-146.895735	67.840402	564.929619	-109.038860	358.869236	513.781751	-104.267472	263.857790	494.047409	-37.802459	123.765160	938.024265	-427.984563	167.704385	862.040909	-422.832059	201.107205	870.837855	-408.979975	165.327988	772.787282	-417.992206	193.237665	655.868581	-405.054050	183.203175	629.065080	-302.342895	196.770475	235.491492	-394.152882	233.601203	268.151664	-325.502256	135.585624	212.960452	-357.633201	341.616046	148.766556	-413.765943	184.207791	527.581841	-431.897659	209.394480	447.466777	-414.828202	191.960009	358.513818	-413.698612	227.103749	450.194838	-378.031523	419.939037	179.395758	-347.004584	-134.765189	944.253324	-221.967317	25.417444	85.998209	-428.566033	18.347277	80.234755	-28.216707	
